<svg xmlns="http://www.w3.org/2000/svg" width="48.66" height="14.83"><path d="M16.76 6.42c0-1.29 1.17-1.77 2.47-1.77s2.46.48 2.46 1.77v6.48c0 1.3-1.17 1.77-2.46 1.77s-2.47-.48-2.47-1.77zm2.84.25c0-.27 0-.64-.37-.64s-.37.37-.37.64v5.92c0 .27 0 .64.37.64s.37-.37.37-.64zm2.88 7.81V4.84h2.47c1.29 0 2.47.48 2.47 2v.76a1.5 1.5 0 0 1-1.62 1.58c1.32.07 1.62.53 1.62 1.64v1.92a4.48 4.48 0 0 0 .31 1.72H25.6a2.32 2.32 0 0 1-.28-1.25V11c0-.6 0-1.08-.74-1.08v4.54zm2.06-5.66h.25c.34 0 .49-.15.49-.61V6.78c0-.46-.15-.61-.49-.61h-.25zm3.59-2.4c0-1.29 1.17-1.77 2.47-1.77s2.46.48 2.46 1.77v6.48c0 1.3-1.17 1.77-2.46 1.77s-2.47-.48-2.47-1.77zm2.87.25c0-.27 0-.64-.37-.64s-.37.37-.37.64v5.92c0 .27 0 .64.37.64s.37-.37.37-.64zm2.83 7.81V4.84h2.77l.95 6.14.01.23h.03V4.84h1.67v9.64h-2.59l-1.14-7.36-.01-.27h-.02v7.63h-1.67zm9.89-8.06c0-1.29 1.17-1.77 2.47-1.77s2.46.48 2.46 1.77v6.48c0 1.3-1.17 1.77-2.46 1.77s-2.47-.48-2.47-1.77zm2.84.25c0-.27 0-.64-.37-.64s-.37.37-.37.64v5.92c0 .27 0 .64.37.64s.37-.37.37-.64zm-3.19-1.83h-3.7v1.45h.8v8.19h2.1V6.29h.8V4.84zM17.58 2.48h-5.25v1.55h1.55v10.45h2.14V4.03h1.56V2.48zm-5.41 12.35v-.06A9.59 9.59 0 0 0 7.78 14H0v.53h10.5a6.47 6.47 0 0 1 1.67.34M9.07.29L8.76 0a.37.37 0 0 0-.29 0L8 .26v2.29a3.72 3.72 0 0 1-1.49 1.37.35.35 0 0 0-.21.36v8.53c-.31 0-.81.07-.81.07V5.66c0-.27-.12-.35-.37-.41a14.42 14.42 0 0 1-2.72-.92V2.85l-.4-.2a.52.52 0 0 0-.34 0 3.8 3.8 0 0 0-.49.28A2.32 2.32 0 0 0 0 4.85v8.82h.79V4.85a1.48 1.48 0 0 1 .75-1.32h.06v10.14h.78v-8.5c.62.23 1 .39 1.67.6l.64.17V13a9.5 9.5 0 0 0-2.19.68H4a9.23 9.23 0 0 1 3.77-.8l-.72-.06V4.5h.08A4.11 4.11 0 0 0 8 3.79v9.88h.81V1.2a3.8 3.8 0 0 1 .77 2.23v10.32c.24 0 .54.06.79.13V3.41A4.71 4.71 0 0 0 9.07.29" fill="#fff"/></svg>